<svg viewBox="0 0 177 61" xmlns="http://www.w3.org/2000/svg"><title>Logo Kanton Thurgau</title><g fill="#000"><g><path d="M128.81.13c-.17.17-.17.45 0 .62l47.44 47.34c.17.17.45.17.62 0 .17-.17.17-.45 0-.63l-47.44-47.33c-.17-.17-.45-.17-.62 0zM131.13 17.63l-.09-1.05-3.97-.96.08 1.03 3.98.98zm20.95 10.87c-.31-.79-.91-1.42-1.69-1.76l-5.62-2.09c-.47-.15-.8-.59-.79-1.09 0-.26.1-.5.26-.69.17.28.49.47.86.48.56.02 1.03-.38 1.05-.89.01-.51-.42-.93-.98-.95h-.02v-.01c-1.14-.02-2.09.89-2.11 2.04-.01.85.49 1.61 1.26 1.94l5.76 2.15c.53.24.93.67 1.14 1.21.21.55.2 1.16-.03 1.7-.24.54-.67.96-1.23 1.18-.55.22-1.16.2-1.7-.03v.01c-1.7-1.05-7.95-4.91-8.62-5.32l2.4-3.71c.54-.81.82-1.6.84-2.35 0-.32-.04-.64-.13-.95-.37-1.23-1.44-1.98-2.02-2.31.04-.16.07-.29.07-.38.01-.37-.08-.66-.26-.94-.33-.5-.85-.64-1.22-.67-.64-.05-.91.18-1.1.45h-.01c-1-.25-1.69-.42-2.04-.48l-.22-.04c-.78-.15-2.23-.42-2.91-.46l-.3-.02s-.34.62-.46.93c-.08.2-.14.35-.27.73l-.13.39.52.15v.01c.39.12.61.54.49.94-.12.39-.54.61-.94.49v.01l-.54-.17c-.11.37-.35 1.29.09 1.97.17.25.49.56 1.1.64.55.07.91.14 1.23.3.22.12.35.5.41.77l-.7 1.09-3.64-2.37.01-.18c.02-1.2-.94-2.2-2.14-2.22-.94-.01-1.77.56-2.09 1.44-.08.22-.12.46-.12.7h.01l2.85 2.89-2.22-.57c-.23-.93-1.06-1.63-2.07-1.64-.94-.02-1.78.56-2.09 1.44-.09.22-.12.46-.13.7 0 .23.04.5.09.67l9.19 4.52.01.15c.12 1.05.43 1.59 1.31 2.3.81.65 1.82.89 1.97.92.02.01 3.47.97 5.83 1.63-.57.44-.99.97-1.33 1.65-.32-.06-1.12-.25-1.75-.4-.09-.53-.41-1.01-.89-1.29-.88-.52-2.02-.22-2.54.65-.3.49-.34 1.08-.14 1.61l.02-.01 6.4 3.98.21-.55c.01-.02.43-1.09 1.43-1.77.01.39.04.78.11 1.15.35 1.83 1.53 3.36 3.51 4.56l.51 1.99c-.17.19-.29.42-.38.66-.08.22-.12.46-.12.7-.02 1.2.94 2.19 2.14 2.22.21 0 .41-.02.62-.08.14-.04.48-.18.61-.29l.32-7.09-.17-.16c-1.52-1.36-2.26-2.73-2.24-4.19v-.03c.02-1.16.52-2.4 1.51-3.77.71.24 1.46.22 2.17-.05.79-.31 1.41-.91 1.75-1.69.33-.8.34-1.66.04-2.45zm-19.38-8.89c-.25-.03-.34-.12-.39-.19-.04-.07-.07-.16-.08-.25.71-.03 1.36-.5 1.58-1.21.24-.75-.07-1.55-.69-1.97l.16-.42c.65.08 1.65.26 2.31.38l-.21.66s.25.21.52.22c.37.01.49-.09.49-.09l.19-.59c.32.07.74.18 1.34.33l.14.03c.57.07.8-.24.91-.39l.03-.05.2-.01c.33.03.43.18.47.23.05.08.1.16.1.38-.01.16-.19.62-.37.73-.19.15-.51.31-1 .31-1.64.02-2.44 1.27-2.54 1.43 0 0-.42.64-.97 1.5-.14-.24-.33-.46-.61-.61-.45-.24-.92-.34-1.58-.42zm-6.1.2v-.02c.17-.47.62-.79 1.13-.78.65.01 1.16.55 1.15 1.19 0 .09-.01.19-.04.28l-.01.02c-.04.15-.06.25-.12.33h-.01s3.55 2.31 4.23 2.75l-.34.54-2.36-.61-3.63-3.7zm5.45 5.23c-.07.1-.62.93-.82 2.02l-8.34-4.1c0-.12.03-.25.07-.37.17-.47.62-.78 1.12-.78.64.01 1.16.55 1.15 1.19l-.02.19-.01.03 6.88 1.77-.03.05zm2.65 5.51l2.8-4.32c.14-.21.08-.5-.14-.65-.21-.14-.51-.08-.64.14l-2.92 4.51c-.23-.11-.47-.25-.69-.42l-.07-.06 2.61-3.97c.14-.22.08-.51-.13-.65-.21-.14-.5-.08-.65.13l-2.47 3.77c-.12-.23-.18-.49-.22-.86l-.02-.37c.02-1.15.73-2.19.74-2.2l.01-.01 3.82-5.93.01-.01c.02-.04.56-.93 1.7-.95.96-.01 1.53-.41 1.84-.74.46.27 1.24.84 1.5 1.7.06.2.09.42.08.64-.01.56-.24 1.17-.67 1.82 0 0-.39.6-.88 1.37l-4.83 7.26-.78-.2zm7.08 5.23c-1.05.55-1.87 1.56-2.18 2.12-.67-.4-4.09-2.55-5.12-3.21 0-.16.04-.32.12-.46.25-.43.81-.57 1.23-.32.3.18.48.52.44.87l-.07.37 3.34.73.15-.37c.38-.91.96-1.56 1.83-2.05l.8.23c-.26.75-.44 1.44-.54 2.09zm3.82.66c-.03 1.7.77 3.3 2.4 4.81-.01.35-.2 4.44-.27 6.01l-.25.02c-.65-.01-1.16-.55-1.15-1.2 0-.13.02-.25.06-.37.11-.3.26-.52.55-.65l-.76-2.99-.18-.1c-2.26-1.32-3.35-2.99-3.31-5.15.01-.98.27-2.07.75-3.27l.21-.52-7.25-2.03 2.56-3.86c2.04 1.26 7.57 4.67 8.23 5.08-1.03 1.5-1.57 2.9-1.59 4.22zM152.43 4.03l-.09-1.05-3.97-.96.08 1.03 3.98.98zm20.94 10.87c-.31-.79-.91-1.42-1.68-1.76l-5.62-2.09c-.48-.15-.8-.59-.79-1.09 0-.27.1-.51.26-.69.17.28.49.47.86.48.56.02 1.03-.38 1.05-.89.01-.5-.43-.93-.98-.95h-.02v-.01c-1.15-.02-2.09.9-2.11 2.04-.01.85.5 1.62 1.26 1.94l5.77 2.15c.52.24.93.67 1.13 1.2.22.55.21 1.16-.03 1.7-.24.55-.67.96-1.23 1.18-.55.22-1.16.21-1.7-.04v.01c-1.7-1.05-7.95-4.9-8.63-5.32.44-.68 2.41-3.71 2.41-3.71.54-.81.82-1.6.83-2.35.01-.32-.04-.64-.13-.95-.37-1.23-1.44-1.98-2.02-2.31.04-.16.07-.29.07-.38.01-.37-.07-.66-.26-.94-.33-.5-.85-.64-1.22-.67-.64-.05-.91.18-1.11.45h-.01c-1-.25-1.68-.42-2.04-.48l-.19-.04c-.78-.14-2.23-.41-2.91-.45l-.29-.02s-.34.62-.46.92c-.08.2-.14.35-.26.73l-.13.39.51.15c.39.12.61.54.49.94-.12.39-.55.61-.94.49v.01l-.53-.16c-.11.37-.35 1.3.09 1.97.16.25.49.56 1.09.63.55.07.91.14 1.23.31.23.12.36.5.41.77l-.7 1.09-3.64-2.37.01-.19c.02-1.2-.94-2.2-2.13-2.22-.94-.02-1.78.56-2.09 1.44-.08.23-.12.46-.13.7h.01l2.85 2.89c-.9-.2-1.72-.4-2.26-.55-.24-.93-1.07-1.63-2.08-1.65-.94-.02-1.77.56-2.09 1.44-.08.22-.12.46-.13.7 0 .23.05.5.09.67l9.19 4.52.01.15c.13 1.06.43 1.6 1.31 2.3.81.65 1.82.89 1.97.93.02 0 3.47.97 5.83 1.63-.57.44-.99.97-1.33 1.65-.31-.06-1.11-.24-1.75-.39-.09-.53-.4-1.01-.88-1.29-.88-.52-2.02-.23-2.54.66-.29.49-.34 1.08-.13 1.61l.02-.01 6.4 3.98.21-.55c.01-.01.44-1.09 1.43-1.77 0 .4.04.78.11 1.15.36 1.83 1.54 3.36 3.51 4.56l.51 2c-.17.19-.29.41-.38.66-.08.22-.12.46-.12.7-.02 1.2.94 2.19 2.14 2.21.21.01.42-.02.62-.07.14-.04.48-.18.61-.3h.01l.32-7.09-.18-.16c-1.52-1.36-2.25-2.73-2.24-4.2v-.03c.02-1.16.51-2.4 1.51-3.77.7.24 1.46.22 2.17-.05.79-.31 1.42-.91 1.76-1.69.33-.8.34-1.66.03-2.45zm-19.37-8.89c-.25-.03-.34-.13-.39-.2l-.08-.25c.71-.03 1.35-.5 1.58-1.21.24-.75-.07-1.55-.69-1.97l.17-.42c.64.08 1.65.26 2.3.38l-.22.66s.25.22.52.22c.38.01.5-.09.5-.09l.18-.59c.31.07.74.18 1.34.33l.14.03c.57.07.8-.24.9-.39l.04-.05h.2c.33.03.43.17.46.23.06.08.1.16.1.38-.01.16-.19.62-.36.73v.01c-.19.15-.51.3-1 .31-1.64.02-2.44 1.27-2.54 1.43 0 0-.42.64-.96 1.5-.14-.24-.34-.46-.61-.61-.46-.25-.92-.35-1.58-.43zm-6.11.19v-.02c.17-.47.62-.78 1.13-.78.64.01 1.16.55 1.15 1.19 0 .09-.01.19-.04.28v.02c-.04.15-.07.26-.12.33v.01s3.55 2.31 4.23 2.75l-.33.54-2.36-.61-3.66-3.71zm5.46 5.24c-.07.1-.62.93-.83 2.02l-8.34-4.1c0-.13.03-.25.07-.37.17-.47.62-.78 1.13-.78.65.01 1.16.55 1.15 1.19l-.02.19-.01.03 6.88 1.77-.03.05zm2.64 5.5l2.8-4.32c.14-.22.08-.51-.14-.65-.22-.14-.51-.08-.65.14l-2.92 4.51c-.22-.11-.47-.25-.69-.42l-.08-.06 2.61-3.97c.15-.22.08-.5-.13-.65-.22-.14-.51-.08-.65.14l-2.47 3.77c-.11-.23-.18-.49-.22-.86l-.02-.36c.02-1.15.73-2.19.73-2.2l.01-.01 3.82-5.93.01-.02c.02-.04.57-.93 1.7-.95.96-.01 1.53-.41 1.84-.75.46.27 1.25.84 1.51 1.7.06.21.09.42.08.64-.01.56-.24 1.17-.67 1.82 0 0-.39.6-.88 1.37l-4.83 7.26-.76-.2zm7.09 5.24c-1.05.55-1.87 1.56-2.19 2.13-.67-.41-4.08-2.56-5.12-3.21 0-.16.04-.32.12-.46.25-.43.8-.57 1.23-.32.3.18.48.52.44.87l-.06.37 3.33.73.16-.37c.38-.91.96-1.55 1.83-2.05l.8.22c-.26.75-.44 1.44-.54 2.09zm3.81.66c-.03 1.7.77 3.29 2.4 4.8-.02.35-.2 4.44-.28 6.01-.08.02-.17.03-.25.02-.65-.01-1.16-.54-1.15-1.19 0-.13.02-.25.07-.37.1-.29.26-.52.54-.64l-.76-2.99-.18-.1c-2.25-1.32-3.35-2.99-3.31-5.15.01-.98.27-2.07.75-3.27l.21-.51-7.26-2.03 2.57-3.86c2.04 1.26 7.56 4.67 8.23 5.08-1.01 1.48-1.55 2.87-1.58 4.2z" id="Shape"/></g><g><path d="M0 30.53h17.89v4.6h-6.02v18.64h-5.82v-18.64h-6.05zM24.91 30.53v7.89c.72-.72 2.21-2.27 4.93-2.27 1.25 0 2.63.36 3.65 1.22 1.51 1.28 1.78 2.9 1.78 5.13v11.27h-5.03v-8.97c0-1.38-.03-2.04-.23-2.63-.49-1.55-1.84-1.71-2.37-1.71-.89 0-1.64.43-2.07.99-.66.89-.66 2.3-.66 3.78v8.55h-5.06v-23.25h5.06zM49.08 36.61h5.06v17.16h-5.06v-1.92c-.45.58-.92 1-1.46 1.31-.81.47-2.19 1.11-3.51 1.11-1.12 0-3.19-.17-4.37-1.81-.89-1.25-.95-2.27-1.05-5.06v-10.79h5.1v10.65c0 .76 0 1.51.39 2.04.3.39.99.86 2.01.86.3 0 .99 0 1.74-.43 1.08-.66 1.12-1.51 1.15-2.43v-10.69zM117.87 36.61h5.06v17.16h-5.06v-1.92c-.46.58-.92 1-1.46 1.31-.81.47-2.19 1.11-3.51 1.11-1.12 0-3.19-.17-4.38-1.81-.89-1.25-.95-2.27-1.05-5.06v-10.79h5.1v10.65c0 .76 0 1.51.39 2.04.3.39.98.86 2 .86.3 0 .98 0 1.74-.43 1.08-.66 1.12-1.51 1.15-2.43v-10.69h.02zM62.57 38.66c1.29-1.19 2.48-1.92 5.38-2.29v4.46l-2.09.32c-2.43.43-3.16.79-3.16 2.96v9.67h-5.06v-17.2h4.93v2.08zM80.53 51.51c-.99.65-2.2 1.45-4.54 1.45-1.42 0-2.8-.37-3.91-1.12-2.3-1.48-3.19-4.15-3.19-7.11 0-3.45 1.61-8.42 7.3-8.42 2.58 0 3.85 1.35 4.6 2.15v-1.89h4.74v17.23c-.07 1.87-.13 4.07-2.63 5.52-1.74 1.05-4.31 1.32-5.86 1.32-3.42 0-5.65-1.19-6.58-2.14-1.35-1.34-1.32-3.08-1.32-4.01h5.23c.07.76.13 1.84 1.48 2.47.33.17.82.33 1.61.33 3.06 0 3.06-1.81 3.06-3.23v-2.55h.01zm-6.41-6.81c0 1.44.1 4.44 3.22 4.44 2.57 0 3.16-2.01 3.16-4.44 0-.82-.07-2.53-.63-3.35-.39-.62-1.31-1.32-2.76-1.25-2.4.1-2.99 2.17-2.99 4.6zM89.37 41.48c.1-1.19.26-2.6 1.81-3.81 1.58-1.25 3.61-1.51 5.62-1.51 2.1 0 7.2.49 7.2 4.93v10c0 1.84.1 2.1.49 2.69h-4.96v-1.83c-.75.63-2.76 2.29-5.26 2.29-3.95 0-5.62-2.83-5.62-5.23 0-2.76 2.2-4.34 3.62-4.93 1.38-.59 4.63-1.18 6.77-1.58v-.92c-.06-.79-.13-2.11-1.94-2.11-2.24 0-2.53 1.38-2.67 2.01h-5.06zm6.42 4.88c-.85.33-2.17 1.1-2.17 2.42 0 .82.72 1.99 1.9 1.99.63 0 1.22-.23 1.75-.56 1.68-1.05 1.74-3.16 1.77-4.93l-3.25 1.08z"/></g></g></svg>